<?xml version="1.0" encoding="UTF-8"?>
<!-- Generator: Adobe Illustrator 15.1.0, SVG Export Plug-In . SVG Version: 6.00 Build 0)  -->
<!DOCTYPE svg PUBLIC "-//W3C//DTD SVG 1.1//EN" "http://www.w3.org/Graphics/SVG/1.1/DTD/svg11.dtd">
<svg version="1.1" id="Layer_1" xmlns="http://www.w3.org/2000/svg" xmlns:xlink="http://www.w3.org/1999/xlink" x="0px" y="0px" width="1284px" height="1284px" viewBox="0 0 1284 1284" enable-background="new 0 0 1284 1284" xml:space="preserve">
<g id="gxf0ad" transform="scale(1 -1) translate(0 -1280)">
	<path id="xf0ad" fill="#333333" d="M75.714,266.724c0,25.444,8.743,47.287,26.227,65.53l470.007,490.392   c17.944-47.047,44.286-88.692,79.023-124.936c34.74-36.247,74.654-63.732,119.746-82.455L300.02,124.143   C282.996,106.381,262.291,97.5,237.905,97.5c-23.926,0-44.86,8.881-62.806,26.644l-73.158,77.771   C84.457,219.197,75.714,240.8,75.714,266.724z M237.905,312.811c0-12.481,4.371-23.282,13.113-32.403   c8.742-9.122,19.095-13.684,31.058-13.684c11.963,0,22.315,4.562,31.058,13.684c8.742,9.121,13.113,19.922,13.113,32.403   c0,12.482-4.371,23.284-13.113,32.405s-19.094,13.682-31.058,13.682c-11.963,0-22.316-4.561-31.058-13.682   C242.276,336.095,237.905,325.294,237.905,312.811z M591.273,958.027c0,88.813,30.252,164.784,90.756,227.915   c60.506,63.129,133.318,94.693,218.441,94.693c26.686,0,54.637-3.961,83.854-11.882c29.219-7.921,53.949-19.083,74.193-33.485   c7.361-5.281,11.041-12.002,11.041-20.163c0-8.161-3.68-14.883-11.041-20.164l-202.219-121.698V911.939l133.201-77.05   c2.303,1.44,20.477,13.083,54.525,34.926c34.049,21.843,65.221,41.286,93.518,58.328c28.299,17.043,44.516,25.563,48.656,25.563   c6.902,0,12.309-2.401,16.221-7.201c3.91-4.801,5.865-10.802,5.865-18.003c0-18.722-5.291-44.167-15.875-76.331   c-21.623-64.33-59.469-116.536-113.531-156.622c-54.063-40.087-113.533-60.13-178.408-60.13   c-85.123,0-157.936,31.565-218.441,94.694C621.525,793.243,591.273,869.214,591.273,958.027z"/>
</g>
</svg>